{"title":"Headhunters [Hodejegerne] [2011] 720p ReRip BRRip H264 AC3 - COD","uid":6941468,"size":1689581430,"categoryP":"video","categoryS":"hd___movies","magnet":"?xt=urn:btih:d6d407305e560026b5db0f963bc91be1f46bd11d&amp;dn=Headhunters+%5BHodejegerne%5D+%5B2011%5D+720p+ReRip+BRRip+H264+AC3+-+COD&amp;tr=udp%3A%2F%2Ftracker.openbittorrent.com%3A80&amp;tr=udp%3A%2F%2Fopen.demonii.com%3A1337&amp;tr=udp%3A%2F%2Ftracker.coppersurfer.tk%3A6969&amp;tr=udp%3A%2F%2Fexodus.desync.com%3A6969","seeders":2,"leechers":0,"uploader":"CODYBOSS1969","files":8,"time":1326052761,"description":"General\nComplete name                            : Headhunters [Hodejegerne] [2011] 720p ReRip BRRip H264 AC3 - CODY.mp4\nFormat                                   : MPEG-4\nFormat profile                           : Base Media\nCodec ID                                 : isom\nFile size                                : 1.57 GiB\nDuration                                 : 1h 40mn\nOverall bit rate                         : 2 250 Kbps\nEncoded date                             : UTC 2012-01-08 02:13:30\nTagged date                              : UTC 2012-01-08 02:13:30\n\nVideo\nID                                       : 1\nFormat                                   : AVC\nFormat/Info                              : Advanced Video Codec\nFormat profile                           : &lt;a class=&quot;__cf_email__&quot; href=&quot;/cdn-cgi/l/email-protection&quot; data-cfemail=&quot;4109282629010d756f70&quot;&gt;[email&amp;#160;protected]&lt;/a&gt;&lt;script cf-hash='f9e31' type=&quot;text/javascript&quot;&gt;\n/* &lt;![CDATA[ */!function(){try{var t=&quot;currentScript&quot;in document?document.currentScript:function(){for(var t=document.getElementsByTagName(&quot;script&quot;),e=t.length;e--;)if(t[e].getAttribute(&quot;cf-hash&quot;))return t[e]}();if(t&amp;&amp;t.previousSibling){var e,r,n,i,c=t.previousSibling,a=c.getAttribute(&quot;data-cfemail&quot;);if(a){for(e=&quot;&quot;,r=parseInt(a.substr(0,2),16),n=2;a.length-n;n+=2)i=parseInt(a.substr(n,2),16)^r,e+=String.fromCharCode(i);e=document.createTextNode(e),c.parentNode.replaceChild(e,c)}}}catch(u){}}();/* ]]&gt; */&lt;/script&gt;\nFormat settings, CABAC                   : Yes\nFormat settings, ReFrames                : 4 frames\nCodec ID                                 : avc1\nCodec ID/Info                            : Advanced Video Coding\nDuration                                 : 1h 40mn\nBit rate                                 : 1 800 Kbps\nMaximum bit rate                         : 20.0 Mbps\nWidth                                    : 1 280 pixels\nHeight                                   : 528 pixels\nDisplay aspect ratio                     : 2.40:1\nFrame rate mode                          : Constant\nFrame rate                               : 24.000 fps\nColor space                              : YUV\nChroma subsampling                       : 4:2:0\nBit depth                                : 8 bits\nScan type                                : Progressive\nBits/(Pixel*Frame)                       : 0.111\nStream size                              : 1.26 GiB (80%)\nWriting library                          : x264 core 119 r2106 07efeb4\nEncoding settings                        : cabac=1 / ref=4 / deblock=1:0:0 / analyse=0x3:0x113 /\n me=umh / subme=9 / psy=1 / psy_rd=1.00:1.00 / mixed_ref=1 / me_range=16 / chroma_me=1 / trellis=2 /\n 8x8dct=1 / cqm=0 / deadzone=21,11 / fast_pskip=0 / chroma_qp_offset=-6 / threads=12 /\n sliced_threads=0 / nr=0 / decimate=1 / interlaced=0 / bluray_compat=0 / constrained_intra=0 /\n bframes=4 / b_pyramid=2 / b_adapt=2 / b_bias=0 / direct=3 / weightb=1 / open_gop=0 / weightp=2 /\n keyint=250 / keyint_min=23 / scenecut=40 / intra_refresh=0 / rc_lookahead=50 / rc=2pass /\n mbtree=1 / bitrate=1800 / ratetol=1.0 / qcomp=0.85 / qpmin=10 / qpmax=51 / qpstep=4 /\n cplxblur=20.0 / qblur=0.5 / vbv_maxrate=40000 / vbv_bufsize=40000 / \n nal_hrd=none / ip_ratio=1.40 / aq=1:1.00\nEncoded date                             : UTC 2012-01-08 02:13:30\nTagged date                              : UTC 2012-01-08 02:13:42\n\nAudio\nID                                       : 2\nFormat                                   : AC-3\nFormat/Info                              : Audio Coding 3\nMode extension                           : CM (complete main)\nCodec ID                                 : ac-3\nDuration                                 : 1h 40mn\nBit rate mode                            : Constant\nBit rate                                 : 448 Kbps\nChannel(s)                               : 6 channels\nChannel positions                        : Front: L C R, Side: L R, LFE\nSampling rate                            : 48.0 KHz\nBit depth                                : 16 bits\nCompression mode                         : Lossy\nStream size                              : 321 MiB (20%)\nEncoded date                             : UTC 2012-01-08 02:13:39\nTagged date                              : UTC 2012-01-08 02:13:42\n\n\n\n\nIMDB link:                                  &lt;a href=&quot; http://www.imdb.com/title/tt1614989/&quot; rel=&quot;nofollow&quot; target=&quot;_NEW&quot;&gt; http://www.imdb.com/title/tt1614989/&lt;/a&gt;\n\n\n\n\nSubtitles included                       : English, Dutch, Romanian, Norwegian\n\n\n\n\nPlease seed at least 1,5:1. This way this torrent has a chance to survive !\n\n\n\n\nThanks. Enjoy !!\n\n_____________________\n\n*** For some [2-3] major glitches I did a ReRip: this one !!! Same source. Checked.\n\n*** Sorry and Enjoy!! \n\n","torrent":{"xt":"urn:btih:d6d407305e560026b5db0f963bc91be1f46bd11d","amp;dn":"Headhunters+%5BHodejegerne%5D+%5B2011%5D+720p+ReRip+BRRip+H264+AC3+-+COD","amp;tr":["udp%3A%2F%2Ftracker.openbittorrent.com%3A80","udp%3A%2F%2Fopen.demonii.com%3A1337","udp%3A%2F%2Ftracker.coppersurfer.tk%3A6969","udp%3A%2F%2Fexodus.desync.com%3A6969"],"infoHash":"d6d407305e560026b5db0f963bc91be1f46bd11d","infoHashBuffer":{"type":"Buffer","data":[214,212,7,48,94,86,0,38,181,219,15,150,59,201,27,225,244,107,209,29]},"announce":[],"urlList":[]}}